<svg width="360" height="229" viewBox="0 0 360 229" fill="none" xmlns="http://www.w3.org/2000/svg">
<path d="M64.3741 196.539C67.352 196.877 70.0818 197.509 72.5803 198.344V198.338C72.6141 198.349 72.6536 198.36 72.6875 198.377C72.7833 198.411 72.8849 198.445 72.9807 198.479C87.8703 203.792 94.7117 202.793 100.566 201C116.381 196.144 125.754 175.236 151.365 179.28C162.228 180.995 170.97 183.33 177.778 188.079C177.778 188.073 177.766 188.056 177.766 188.056C177.811 188.096 177.862 188.129 177.907 188.169C178.883 188.857 179.836 189.551 180.739 190.267C194.06 198.964 207.326 187.628 211.138 185.061C211.42 184.858 211.708 183.245 211.995 183.042C212.148 182.929 212.232 182.862 212.232 182.862V182.873C228.921 171.108 255.469 159.196 281.063 162.118C325.032 167.143 342.731 217.012 342.731 217.012H199.43H187.732H96.6349H76.5339H14.1443C19.2767 205.236 39.8119 193.73 64.3741 196.539Z" fill="#421F91"/>
<path d="M31.0304 69.7233H56.935C57.5384 69.7233 58.0291 69.2327 58.0291 68.6292V61.4269C58.0291 60.8234 57.5384 60.3327 56.935 60.3327H31.0304C30.427 60.3327 29.9363 60.8234 29.9363 61.4269V68.6292C29.9363 69.2383 30.427 69.7233 31.0304 69.7233Z" fill="#8155FF"/>
<path d="M35.4353 63.9818H53.8386" stroke="white" stroke-width="0.6238" stroke-miterlimit="10"/>
<path d="M35.4353 66.0799H40.8553" stroke="white" stroke-width="0.6238" stroke-miterlimit="10"/>
<path d="M54.6846 68.4769V72.7182L49.2702 68.4769H54.6846Z" fill="#8155FF"/>
<path d="M334.852 114.212C336.59 114.212 337.999 112.782 337.999 111.019C337.999 109.256 336.59 107.827 334.852 107.827C333.114 107.827 331.704 109.256 331.704 111.019C331.704 112.782 333.114 114.212 334.852 114.212Z" stroke="white" stroke-width="1.0888" stroke-miterlimit="10"/>
<path d="M18.2953 135.694C20.7779 135.694 22.7904 133.654 22.7904 131.137C22.7904 128.62 20.7779 126.58 18.2953 126.58C15.8127 126.58 13.8002 128.62 13.8002 131.137C13.8002 133.654 15.8127 135.694 18.2953 135.694Z" stroke="white" stroke-width="1.0888" stroke-miterlimit="10"/>
<path d="M189.385 36.1597C189.385 37.1185 188.618 37.8968 187.67 37.8968C186.723 37.8968 185.956 37.1185 185.956 36.1597C185.956 35.2009 186.723 34.4226 187.67 34.4226C188.618 34.4226 189.385 35.2009 189.385 36.1597Z" stroke="white" stroke-width="1.0888" stroke-miterlimit="10"/>
<path d="M41.9664 26.8368H115.332C115.332 26.8368 114.976 23.9209 106.826 21.5916C98.6766 19.2623 92.8279 25.235 83.6122 21.5916C74.3964 17.9481 69.5122 12.7255 57.6343 15.6357C45.7621 18.5516 41.9664 26.8368 41.9664 26.8368Z" stroke="#FAFAFA" stroke-width="1.103" stroke-miterlimit="10" stroke-linecap="round" stroke-linejoin="round"/>
<path d="M274.532 52.5665H312.472C312.472 52.5665 312.292 50.7334 308.073 49.267C303.86 47.8006 300.831 51.5569 296.065 49.267C291.3 46.9772 288.773 43.6891 282.631 45.5221C276.495 47.3551 274.532 52.5665 274.532 52.5665Z" stroke="#FAFAFA" stroke-width="1.103" stroke-miterlimit="10" stroke-linecap="round" stroke-linejoin="round"/>
<path d="M254.429 17.0342C255.522 10.2531 250.91 3.8701 244.129 2.77735C237.348 1.6846 230.965 6.29591 229.873 13.077C228.78 19.8581 233.391 26.2411 240.172 27.3339C246.953 28.4266 253.336 23.8153 254.429 17.0342Z" fill="#421F91"/>
<path d="M235.238 86.852H106.138V216.363H235.238V86.852Z" fill="white"/>
<path d="M235.238 66.4803V86.852H106.138V66.4803C106.138 62.4308 109.421 59.154 113.465 59.154H227.912C231.955 59.154 235.238 62.4308 235.238 66.4803Z" fill="#8155FF"/>
<path d="M215.227 77.8731C218.582 77.8731 221.301 75.1536 221.301 71.7988C221.301 68.4441 218.582 65.7245 215.227 65.7245C211.872 65.7245 209.153 68.4441 209.153 71.7988C209.153 75.1536 211.872 77.8731 215.227 77.8731Z" fill="#2B4183"/>
<path d="M215.227 74.083C217.15 74.083 218.707 72.5264 218.707 70.6032V54.8788C218.707 52.9556 217.15 51.399 215.227 51.399C213.304 51.399 211.747 52.9556 211.747 54.8788V70.6032C211.747 72.5264 213.304 74.083 215.227 74.083Z" fill="#FFCB2D"/>
<path d="M172.363 77.8731C175.718 77.8731 178.437 75.1536 178.437 71.7988C178.437 68.4441 175.718 65.7245 172.363 65.7245C169.008 65.7245 166.289 68.4441 166.289 71.7988C166.289 75.1536 169.008 77.8731 172.363 77.8731Z" fill="#2B4183"/>
<path d="M172.363 74.083C174.286 74.083 175.843 72.5264 175.843 70.6032V54.8788C175.843 52.9556 174.286 51.399 172.363 51.399C170.44 51.399 168.883 52.9556 168.883 54.8788V70.6032C168.883 72.5264 170.446 74.083 172.363 74.083Z" fill="#FFCB2D"/>
<path d="M129.505 77.8731C132.86 77.8731 135.579 75.1536 135.579 71.7988C135.579 68.4441 132.86 65.7245 129.505 65.7245C126.15 65.7245 123.431 68.4441 123.431 71.7988C123.431 75.1536 126.15 77.8731 129.505 77.8731Z" fill="#2B4183"/>
<path d="M129.505 74.083C131.428 74.083 132.985 72.5264 132.985 70.6032V54.8788C132.985 52.9556 131.428 51.399 129.505 51.399C127.582 51.399 126.025 52.9556 126.025 54.8788V70.6032C126.019 72.5264 127.582 74.083 129.505 74.083Z" fill="#FFCB2D"/>
<path d="M191.614 132.214H216.159V107.669H191.614V132.214Z" stroke="#F0E0DF" stroke-width="2.2132" stroke-miterlimit="10"/>
<path d="M158.957 132.214H183.502V107.669H158.957V132.214Z" stroke="#F0E0DF" stroke-width="2.2132" stroke-miterlimit="10"/>
<path d="M126.295 132.214H150.84V107.669H126.295V132.214Z" stroke="#F0E0DF" stroke-width="2.2132" stroke-miterlimit="10"/>
<path d="M191.614 163.372H216.159V138.827H191.614V163.372Z" stroke="#F0E0DF" stroke-width="2.2132" stroke-miterlimit="10"/>
<path d="M158.957 163.372H183.502V138.827H158.957V163.372Z" stroke="#F0E0DF" stroke-width="2.2132" stroke-miterlimit="10"/>
<path d="M126.295 163.372H150.84V138.827H126.295V163.372Z" fill="#F88AA0"/>
<path d="M135.167 147.589L141.969 154.605" stroke="white" stroke-width="2.0174" stroke-miterlimit="10"/>
<path d="M141.969 147.589L135.167 154.605" stroke="white" stroke-width="2.0174" stroke-miterlimit="10"/>
<path d="M191.614 194.53H216.159V169.985H191.614V194.53Z" stroke="#F0E0DF" stroke-width="2.2132" stroke-miterlimit="10"/>
<path d="M158.957 194.53H183.502V169.985H158.957V194.53Z" stroke="#F0E0DF" stroke-width="2.2132" stroke-miterlimit="10"/>
<path d="M126.295 194.53H150.84V169.985H126.295V194.53Z" stroke="#F0E0DF" stroke-width="2.2132" stroke-miterlimit="10"/>
<path d="M233.021 131.024H221.076V138.892H233.021V131.024Z" fill="#FFA80A"/>
<path d="M234.86 133.066H219.232C217.455 133.066 216.011 131.622 216.011 129.846C216.011 128.069 217.455 126.625 219.232 126.625H234.86C236.637 126.625 238.081 128.069 238.081 129.846C238.086 131.622 236.642 133.066 234.86 133.066Z" fill="#FFCB2D"/>
<path d="M198.082 142.961L191.346 149.696L196.096 154.446L202.832 147.71L198.082 142.961Z" fill="#FFA80A"/>
<path d="M200.208 142.682L190.8 152.09C189.853 153.037 188.313 153.037 187.366 152.09C186.418 151.142 186.418 149.603 187.366 148.655L196.773 139.248C197.721 138.3 199.26 138.3 200.208 139.248C201.155 140.195 201.155 141.735 200.208 142.682Z" fill="#FFCB2D"/>
<path d="M226.908 216.256C249.207 216.256 267.284 198.179 267.284 175.879C267.284 153.58 249.207 135.503 226.908 135.503C204.608 135.503 186.531 153.58 186.531 175.879C186.531 198.179 204.608 216.256 226.908 216.256Z" fill="#F67B91"/>
<path d="M226.908 214.085C248.008 214.085 265.113 196.98 265.113 175.879C265.113 154.779 248.008 137.674 226.908 137.674C205.807 137.674 188.702 154.779 188.702 175.879C188.702 196.98 205.807 214.085 226.908 214.085Z" fill="#F88AA0"/>
<path d="M226.908 209.77C245.625 209.77 260.798 194.597 260.798 175.879C260.798 157.162 245.625 141.989 226.908 141.989C208.19 141.989 193.017 157.162 193.017 175.879C193.017 194.597 208.19 209.77 226.908 209.77Z" fill="#F6F6F6"/>
<g opacity="0.71">
<path d="M189.83 149.067L241.199 228.664L264.408 208.704L213.586 137.465L189.83 149.067Z" fill="white"/>
<path d="M217.207 129.891L268.576 209.488L271.56 199.511L220.737 128.267L217.207 129.891Z" fill="white"/>
</g>
<path d="M227.077 149.625C226.609 149.625 226.225 149.242 226.225 148.774V146.771C226.225 146.303 226.609 145.92 227.077 145.92C227.545 145.92 227.928 146.303 227.928 146.771V148.774C227.928 149.242 227.551 149.625 227.077 149.625Z" fill="#8054FF"/>
<path d="M227.077 206.251C226.609 206.251 226.225 205.867 226.225 205.399V203.397C226.225 202.923 226.609 202.545 227.077 202.545C227.545 202.545 227.928 202.929 227.928 203.397V205.399C227.928 205.867 227.551 206.251 227.077 206.251Z" fill="#8054FF"/>
<path d="M207.765 157.623C207.546 157.623 207.331 157.538 207.162 157.375L205.746 155.959C205.414 155.626 205.414 155.085 205.746 154.752C206.079 154.419 206.621 154.419 206.953 154.752L208.369 156.168C208.702 156.5 208.702 157.042 208.369 157.375C208.2 157.538 207.985 157.623 207.765 157.623Z" fill="#8054FF"/>
<path d="M247.804 197.661C247.584 197.661 247.37 197.576 247.2 197.413L245.785 195.997C245.452 195.665 245.452 195.123 245.785 194.79C246.118 194.458 246.659 194.458 246.992 194.79L248.407 196.206C248.74 196.539 248.74 197.08 248.407 197.413C248.238 197.582 248.024 197.661 247.804 197.661Z" fill="#8054FF"/>
<path d="M206.35 197.661C206.13 197.661 205.916 197.576 205.746 197.413C205.414 197.08 205.414 196.539 205.746 196.206L207.162 194.79C207.495 194.458 208.036 194.458 208.369 194.79C208.702 195.123 208.702 195.665 208.369 195.997L206.953 197.413C206.784 197.582 206.57 197.661 206.35 197.661Z" fill="#8054FF"/>
<path d="M246.388 157.623C246.168 157.623 245.954 157.538 245.785 157.375C245.452 157.042 245.452 156.5 245.785 156.168L247.2 154.752C247.533 154.419 248.075 154.419 248.407 154.752C248.74 155.085 248.74 155.626 248.407 155.959L246.992 157.375C246.828 157.538 246.608 157.623 246.388 157.623Z" fill="#8054FF"/>
<path d="M199.768 176.934H197.766C197.298 176.934 196.914 176.551 196.914 176.082C196.914 175.614 197.298 175.231 197.766 175.231H199.768C200.236 175.231 200.62 175.614 200.62 176.082C200.62 176.551 200.236 176.934 199.768 176.934Z" fill="#8054FF"/>
<path d="M256.388 176.934H254.386C253.918 176.934 253.534 176.551 253.534 176.082C253.534 175.614 253.918 175.231 254.386 175.231H256.388C256.862 175.231 257.24 175.614 257.24 176.082C257.24 176.551 256.862 176.934 256.388 176.934Z" fill="#8054FF"/>
<path d="M229.113 175.761H225.041V158.102C225.041 156.98 225.954 156.066 227.077 156.066C228.199 156.066 229.113 156.98 229.113 158.102V175.761Z" fill="#8054FF"/>
<path d="M227.077 180.431C229.656 180.431 231.747 178.34 231.747 175.761C231.747 173.182 229.656 171.091 227.077 171.091C224.498 171.091 222.407 173.182 222.407 175.761C222.407 178.34 224.498 180.431 227.077 180.431Z" fill="#2B4183"/>
<path d="M87.6899 133.777L95.067 166.32C95.5182 169.422 94.3225 172.535 91.9481 174.436L69.9182 191.666L70.3243 175.8L81.328 166.822L69.9182 132.886L87.6899 133.777Z" fill="#7041FD"/>
<path d="M59.1797 191.796L69.7885 186.246L65.598 180.335L54.0811 186.601L57.7528 191.26L59.1797 191.796Z" fill="#FA849B"/>
<path d="M56.6586 184.114C56.6586 184.114 58.4521 190.684 63.6127 190.318L65.6036 205.969L50.3756 186.657L56.6586 184.114Z" fill="#181F42"/>
<path d="M65.6049 205.962L50.375 186.649L48.5505 188.088L63.7803 207.4L65.6049 205.962Z" fill="white"/>
<path d="M63.8722 192.36C63.8722 192.36 62.6821 191.976 60.9055 192.061" stroke="white" stroke-width="1.5042" stroke-miterlimit="10" stroke-linecap="round" stroke-linejoin="round"/>
<path d="M64.3121 194.655C64.3121 194.655 63.122 194.271 61.3454 194.356" stroke="white" stroke-width="1.5042" stroke-miterlimit="10" stroke-linecap="round" stroke-linejoin="round"/>
<path d="M64.752 196.945C64.752 196.945 63.562 196.561 61.7854 196.646" stroke="white" stroke-width="1.5042" stroke-miterlimit="10" stroke-linecap="round" stroke-linejoin="round"/>
<path d="M68.6492 210.966L69.7208 199.201L62.4847 198.829L61.4075 211.755H67.3464L68.6492 210.966Z" fill="#FA849B"/>
<path d="M60.4825 208.191C60.4825 208.191 66.7485 210.853 69.6588 206.572L83.1835 214.7H58.5875L60.4825 208.191Z" fill="#181F42"/>
<path d="M83.1891 214.7H58.5931V217.023H83.1891V214.7Z" fill="white"/>
<path d="M71.4297 207.633C71.4297 207.633 70.392 208.332 69.3599 209.776" stroke="white" stroke-width="1.5042" stroke-miterlimit="10" stroke-linecap="round" stroke-linejoin="round"/>
<path d="M73.4996 208.71C73.4996 208.71 72.4619 209.409 71.4297 210.853" stroke="white" stroke-width="1.5042" stroke-miterlimit="10" stroke-linecap="round" stroke-linejoin="round"/>
<path d="M75.5751 209.781C75.5751 209.781 74.5374 210.481 73.5052 211.925" stroke="white" stroke-width="1.5042" stroke-miterlimit="10" stroke-linecap="round" stroke-linejoin="round"/>
<path d="M63.3251 132.982L60.0087 201.609H72.5972L81.7678 133.207L63.3251 132.982Z" fill="#8155FF"/>
<path d="M87.6898 133.777L80.0589 145.739L78.4628 133.478L87.6898 133.777Z" fill="#8155FF"/>
<path d="M120.408 122.153L112.889 122.739L114.232 115.187L122.088 115.847L120.408 122.153Z" fill="#FA849B"/>
<path d="M126.736 121.786C124.525 123.681 121.197 123.422 119.302 121.211C117.407 119 117.666 115.672 119.877 113.777C122.088 111.882 125.416 112.142 127.311 114.353C129.206 116.564 128.946 119.891 126.736 121.786Z" fill="#FA849B"/>
<path d="M123.577 112.52C123.577 112.52 122.618 110.314 120.391 111.95C118.157 113.586 116.178 116.924 119.302 121.211L123.577 112.52Z" fill="#FA849B"/>
<path d="M123.577 112.491L129.635 110.969C130.137 110.805 130.695 111.076 130.87 111.567C131.016 111.99 130.825 112.446 130.413 112.638L124.26 115.39L123.577 112.491Z" fill="#FA849B"/>
<path d="M92.0157 101.984L101.948 117.703C103.352 120.224 102.568 123.399 100.154 124.978C97.6219 126.631 94.2266 125.932 92.5628 123.405L81.6156 108.307C80.0251 105.893 80.3522 102.695 82.3939 100.647C85.2534 97.788 90.0474 98.4592 92.0157 101.984Z" fill="#FFCD2E"/>
<path d="M88.9081 118.425L89.4947 109.824L91.6266 122.181L88.9081 118.425Z" fill="#F2BB19"/>
<path d="M96.7928 116.129L118.659 113.557L118.591 123.546L98.2536 126.168C95.0444 126.789 92.0947 124.262 92.2132 120.997C92.309 118.459 94.2661 116.377 96.7928 116.129Z" fill="#FFCD2E"/>
<path d="M58.9484 145.739C58.9484 145.739 61.3849 145.937 60.9901 143.145C60.5897 140.359 58.5367 136.975 53.19 137.73L58.9484 145.739Z" fill="#FA849B"/>
<path d="M41.3027 168.09H65.848V143.545H41.3027V168.09Z" fill="#FFCD2E"/>
<path d="M42.4385 168.09H66.9837V143.545H42.4385V168.09Z" fill="#FFCD2E"/>
<path d="M49.1123 144.138C48.4693 141.244 50.291 138.379 53.1843 137.73C56.0777 137.087 58.9428 138.909 59.5914 141.803C60.2343 144.696 58.4126 147.561 55.5193 148.21C52.6203 148.858 49.7552 147.031 49.1123 144.138Z" fill="#FA849B"/>
<path d="M59.5914 117.488L59.3489 139.507L49.7045 139.056L49.445 117.663C49.2364 114.403 52.1184 111.798 55.3445 112.334C57.8543 112.74 59.6647 114.945 59.5914 117.488Z" fill="#FFCD2E"/>
<path d="M71.9768 108.267L58.6721 121.256C56.5007 123.157 53.2295 123.05 51.1822 121.019C49.039 118.887 49.0164 115.419 51.1427 113.264L63.6296 99.4123C65.66 97.3537 68.8579 97.004 71.2831 98.5832C74.6728 100.777 75.0168 105.611 71.9768 108.267Z" fill="#FFCD2E"/>
<path d="M86.827 98.8427L67.9048 97.5962C66.2015 97.4834 63.1559 100.58 63.3364 102.283L63.3251 132.982L87.6899 133.777L90.1658 102.616C90.2786 100.659 88.784 98.9724 86.827 98.8427Z" fill="#FFCD2E"/>
<path d="M63.3251 116.71L68.8184 111.347L63.3307 125.87L63.3251 116.71Z" fill="#F2BB19"/>
<path d="M83.7419 86.1414C83.6178 87.5627 84.6386 88.8204 86.0204 88.9445C87.3966 89.0685 88.6148 88.0139 88.7389 86.5926C88.863 85.1713 87.8422 83.9136 86.4604 83.7895C85.0786 83.6654 83.866 84.7145 83.7419 86.1414Z" fill="#E6728C"/>
<path d="M82.2868 92.2157L82.174 98.3971C82.1401 100.569 80.8204 101.702 78.7561 101.64C76.9908 101.589 75.0676 100.698 75.1804 98.7863L75.8177 89.0685L82.2868 92.2157Z" fill="#FA849B"/>
<path d="M82.2247 96.3216C82.2247 96.3216 77.1826 96.6543 75.7274 90.9523C75.2706 89.1588 82.315 91.5783 82.315 91.5783L82.2247 96.3216Z" fill="#312725"/>
<path d="M80.3974 93.981C83.928 94.0543 86.8946 91.2343 87.0525 88.262L87.3515 82.0355C87.5489 78.3074 84.8473 75.0926 81.249 74.7711C77.5604 74.4384 73.6632 77.202 73.3417 81.009L73.1669 85.8594C73.0033 90.2304 76.1786 93.6031 80.3974 93.981Z" fill="#F8879D"/>
<path d="M83.3809 85.5323L83.5445 87.5683L82.6703 87.5852" stroke="#312725" stroke-width="0.5974" stroke-miterlimit="10" stroke-linecap="round" stroke-linejoin="round"/>
<path d="M79.5514 81.4151C79.5514 81.4151 81.0008 81.3192 81.0008 81.9283C81.0008 81.9283 80.9952 82.34 79.7318 82.3964C78.4685 82.4528 78.1414 82.357 78.0342 81.9678C77.927 81.573 78.8746 81.4038 79.5514 81.4151Z" fill="#312725"/>
<path d="M85.5918 82.842C85.5918 82.842 84.4017 82.6954 84.2946 83.265C84.2946 83.265 84.2325 83.6485 85.2759 83.7557C86.3193 83.8628 86.6634 83.7331 86.7649 83.4229C86.8833 83.0676 86.1614 82.8589 85.5918 82.842Z" fill="#312725"/>
<path d="M84.6838 85.1544C84.6668 85.4984 84.9263 85.7917 85.259 85.8143C85.5918 85.8312 85.8795 85.5661 85.8964 85.2221C85.9133 84.878 85.6538 84.5848 85.3211 84.5622C84.9883 84.5396 84.7007 84.8047 84.6838 85.1544Z" fill="#312725"/>
<path d="M79.3709 84.878C79.3539 85.2221 79.6134 85.5153 79.9462 85.5379C80.2789 85.5548 80.5666 85.2897 80.5835 84.9457C80.6004 84.6017 80.341 84.3084 80.0082 84.2858C79.6754 84.2633 79.3878 84.5283 79.3709 84.878Z" fill="#312725"/>
<path d="M80.8316 88.4651C80.8655 88.5666 81.6946 89.4295 82.8564 89.1306" stroke="#312725" stroke-width="0.5974" stroke-miterlimit="10" stroke-linecap="round" stroke-linejoin="round"/>
<path d="M85.8964 71.7481C84.5428 71.1672 81.0911 70.5242 80.3297 73.5755C76.8949 73.316 71.4298 73.3781 70.8827 76.356C70.0762 80.727 73.1782 85.0641 73.1782 85.0641L74.0524 85.5097C74.0524 85.5097 76.2689 84.3535 75.6992 79.1196C75.6992 79.1196 83.6347 81.0315 87.3571 79.0181C91.0852 77.0046 89.9572 73.4965 85.8964 71.7481Z" fill="#312725"/>
<path d="M69.9239 85.6733C69.8054 87.0833 70.815 88.3241 72.1799 88.4481C73.5448 88.5722 74.7517 87.5288 74.8702 86.1188C74.9886 84.7088 73.979 83.468 72.6142 83.3439C71.2493 83.2199 70.0423 84.2633 69.9239 85.6733Z" fill="#F8879D"/>
<path d="M73.1838 86.5869C73.1838 86.5869 73.3417 84.737 71.6046 84.8724" stroke="#312725" stroke-width="0.5974" stroke-miterlimit="10" stroke-linecap="round" stroke-linejoin="round"/>
<path d="M72.7834 97.9177L84.1085 98.6622C84.1085 98.6622 84.4694 102.565 79.4329 102.294C73.7647 101.995 72.7834 97.9177 72.7834 97.9177Z" fill="#FA849B"/>
<path d="M309.584 192.32L298.423 187.12L302.45 180.843L314.587 186.742L311.023 191.705L309.584 192.32Z" fill="#FA849B"/>
<path d="M311.818 184.306C311.818 184.306 310.284 191.141 304.965 191.006L303.657 207.187L318.4 186.624L311.818 184.306Z" fill="#181F42"/>
<path d="M305.583 208.572L320.33 188.005L318.386 186.612L303.64 207.178L305.583 208.572Z" fill="white"/>
<path d="M304.79 193.126C304.79 193.126 305.997 192.681 307.825 192.681" stroke="white" stroke-width="1.5477" stroke-miterlimit="10" stroke-linecap="round" stroke-linejoin="round"/>
<path d="M304.446 195.501C304.446 195.501 305.653 195.055 307.481 195.055" stroke="white" stroke-width="1.5477" stroke-miterlimit="10" stroke-linecap="round" stroke-linejoin="round"/>
<path d="M304.102 197.875C304.102 197.875 305.309 197.43 307.137 197.43" stroke="white" stroke-width="1.5477" stroke-miterlimit="10" stroke-linecap="round" stroke-linejoin="round"/>
<path d="M283.674 124.358C283.674 124.358 276.382 151.582 275.304 156.946C274.233 162.315 272.084 173.048 276.59 176.912C281.097 180.775 298.417 190.047 298.417 190.047L304.79 178.609L294.469 172.405L283.674 124.358Z" fill="#243B77"/>
<path d="M293.51 210.926L291.232 198.823L298.677 198.439L300.955 211.739H294.847L293.51 210.926Z" fill="#FA849B"/>
<path d="M301.327 208.072C301.327 208.072 294.875 210.808 291.886 206.409L277.972 214.773H303.279L301.327 208.072Z" fill="#181F42"/>
<path d="M277.97 217.162H303.276V214.771H277.97V217.162Z" fill="white"/>
<path d="M290.064 207.503C290.064 207.503 291.13 208.219 292.196 209.708" stroke="white" stroke-width="1.5477" stroke-miterlimit="10" stroke-linecap="round" stroke-linejoin="round"/>
<path d="M287.932 208.603C287.932 208.603 288.998 209.319 290.064 210.808" stroke="white" stroke-width="1.5477" stroke-miterlimit="10" stroke-linecap="round" stroke-linejoin="round"/>
<path d="M285.801 209.708C285.801 209.708 286.866 210.424 287.932 211.913" stroke="white" stroke-width="1.5477" stroke-miterlimit="10" stroke-linecap="round" stroke-linejoin="round"/>
<path d="M283.674 124.358L282.952 165.428C282.924 166.901 283.043 168.373 283.302 169.822L289.404 201.496H302.173L298.609 165.778C298.761 159.208 300.938 151.853 301.756 143.839C301.756 143.839 304.26 128.977 297.396 124.437L283.674 124.358Z" fill="#2B4183"/>
<path d="M275.502 118.724L254.628 111.087L252.203 115.154L272.552 125.937C275.942 127.229 279.439 124.319 278.79 120.754C278.491 119.113 277.07 119.282 275.502 118.724Z" fill="#FA849B"/>
<path d="M252.062 107.985C251.695 107.59 251.103 107.404 250.601 107.528C249.919 107.697 249.648 108.363 250.015 108.966L250.314 109.463C249.642 109.717 248.261 109.784 245.728 107.229C245.305 106.801 244.6 106.699 244.166 107.004C243.822 107.241 243.743 107.658 243.929 108.03C243.94 108.047 243.952 108.064 243.957 108.081C243.608 107.968 243.219 107.996 242.942 108.188C242.598 108.425 242.519 108.842 242.705 109.215C242.728 109.265 242.762 109.31 242.79 109.361C242.615 109.378 242.451 109.429 242.31 109.525C241.966 109.762 241.887 110.179 242.074 110.551C242.124 110.658 242.198 110.76 242.288 110.85C242.322 110.884 242.356 110.912 242.389 110.946C242.373 110.957 242.356 110.963 242.344 110.969C242 111.206 241.921 111.623 242.107 111.995C242.158 112.102 242.232 112.204 242.322 112.294C243.021 112.999 243.715 113.586 244.392 114.059C244.392 114.059 244.403 114.071 244.425 114.082C244.747 114.302 245.063 114.494 245.379 114.663C246.839 115.514 249.97 114.798 252.66 115.232L254.758 111.268L252.062 107.985Z" fill="#FA849B"/>
<path d="M244.664 122.196L254.756 99.1416L231.702 89.0502L221.61 112.104L244.664 122.196Z" fill="#FFCD2E"/>
<path d="M252.406 108.402L250.359 106.017C250.026 105.628 249.428 105.628 249.095 106.017C248.875 106.271 248.83 106.637 248.983 106.936L250.015 108.966C250.015 108.966 249.135 111.73 251.233 114.127L252.406 108.402Z" fill="#FA849B"/>
<path d="M284.751 119.158L277.154 125.227C275.62 126.45 273.483 126.58 271.813 125.548C269.461 124.099 268.023 122.756 269.721 120.574L278.068 112.108L284.751 119.158Z" fill="#FA849B"/>
<path d="M290.64 111.894C290.64 111.894 289.63 116.879 283.635 121.408L274.391 112.683L281.869 104.347L290.64 111.894Z" fill="#7041FD"/>
<path d="M305.061 118.487L321.129 138.757L324.767 136.349C324.767 136.349 315.546 119.18 311.259 113.766C309.009 110.924 304.503 111.668 303.256 115.075C302.687 116.631 303.995 117.206 305.061 118.487Z" fill="#FA849B"/>
<path d="M321.908 142.829C322.038 143.337 322.455 143.771 322.94 143.895C323.6 144.07 324.141 143.624 324.113 142.936L324.085 142.372C324.779 142.462 325.985 143.055 326.961 146.41C327.125 146.974 327.678 147.386 328.191 147.33C328.591 147.285 328.856 146.969 328.873 146.563C328.873 146.546 328.873 146.523 328.873 146.506C329.121 146.766 329.46 146.924 329.787 146.884C330.187 146.839 330.452 146.523 330.469 146.117C330.469 146.066 330.469 146.01 330.464 145.954C330.622 146.021 330.785 146.049 330.949 146.033C331.349 145.987 331.614 145.672 331.631 145.265C331.637 145.153 331.62 145.029 331.586 144.91C331.575 144.865 331.558 144.826 331.547 144.78C331.563 144.78 331.58 144.78 331.597 144.78C331.998 144.735 332.263 144.419 332.28 144.013C332.285 143.901 332.268 143.777 332.235 143.658C331.964 142.727 331.648 141.91 331.287 141.188C331.287 141.188 331.281 141.176 331.27 141.154C331.101 140.816 330.915 140.505 330.723 140.212C329.871 138.808 326.865 137.962 324.767 136.337L321.129 138.746L321.908 142.829Z" fill="#FA849B"/>
<path d="M302.664 105.988L309.974 112.401C311.451 113.698 311.953 115.78 311.231 117.601C310.216 120.173 309.15 121.82 306.702 120.54L296.9 113.811L302.664 105.988Z" fill="#FA849B"/>
<path d="M293.257 101.516C293.257 101.516 299.517 101.623 305.033 106.716L300.053 115.977L290.262 112.582L293.257 101.516Z" fill="#8155FF"/>
<path d="M285.327 102.069C285.327 102.069 279.252 103.749 279.23 111.894C279.219 116.344 283.669 124.358 283.669 124.358L297.391 124.431C297.391 124.431 299.404 118.842 300.611 113.789C301.818 108.735 297.955 103.936 293.251 101.51L285.327 102.069Z" fill="#8155FF"/>
<path d="M300.053 115.977L294.667 112.114L298.823 120.156L300.053 115.977Z" fill="#7041FD"/>
<path d="M288.79 104.674C290.69 104.392 291.367 103.118 291.085 101.211L288.97 90.3037L283.229 91.223L284.83 101.742C285.112 103.648 286.883 104.962 288.79 104.674Z" fill="#F8879D"/>
<path d="M287.656 92.4638C287.656 92.4638 289.517 98.2787 284.582 100.258L284.125 96.7897L289.196 92.9545" fill="#32292A"/>
<path d="M283.398 97.5342C286.985 97.1958 289.641 94.325 289.342 91.1271L288.35 80.648L282.304 80.6649C280.076 80.8736 277.013 83.829 277.2 85.8199L278.254 92.3228C278.48 94.6521 280.386 97.8218 283.398 97.5342Z" fill="#F8879D"/>
<path d="M278.536 88.5271L277.16 92.0352C276.934 92.3961 277.245 92.8361 277.69 92.7909L280.053 92.571L278.536 88.5271Z" fill="#F8879D"/>
<path d="M279.738 86.8915C279.738 86.8915 278.452 86.9253 278.497 87.4668C278.497 87.4668 278.536 87.8277 279.659 87.777C280.781 87.7262 281.063 87.6078 281.125 87.2524C281.187 86.9028 280.335 86.8294 279.738 86.8915Z" fill="#312725"/>
<path d="M279.805 89.4351C279.85 89.7397 279.647 90.0217 279.354 90.0668C279.061 90.1119 278.784 89.8976 278.739 89.5931C278.694 89.2885 278.897 89.0065 279.19 88.9614C279.489 88.9163 279.766 89.1306 279.805 89.4351Z" fill="#312725"/>
<path d="M279.393 93.5185C279.393 93.5185 280.29 93.5185 280.708 92.4638" stroke="#312725" stroke-width="0.5974" stroke-miterlimit="10" stroke-linecap="round" stroke-linejoin="round"/>
<path d="M289.365 100.896L293.251 101.516C293.251 101.516 289.168 108.137 285.146 106.547C280.51 104.714 286.658 101.234 286.658 101.234L289.365 100.896Z" fill="#F8879D"/>
<path d="M287.735 89.0008C284.701 88.2225 284.12 85.38 284.12 85.38L276.083 86.9648C276.083 86.9648 274.836 78.956 284.458 77.4501C289.28 76.6944 292.365 79.0237 293.99 81.3586C295.541 83.5808 295.693 86.4854 294.61 88.967C293.843 90.7267 291.869 93.1914 289.715 94.3137L288.97 90.3037C288.97 90.3093 288.271 89.1418 287.735 89.0008Z" fill="#32292A"/>
<path d="M291.587 88.4256C291.576 89.8525 290.442 91.003 289.06 90.9974C287.679 90.9918 286.568 89.8299 286.579 88.403C286.59 86.9761 287.724 85.8255 289.106 85.8312C290.493 85.8312 291.604 86.9986 291.587 88.4256Z" fill="#F8879D"/>
<path d="M288.226 89.0291C288.226 89.0291 288.243 87.1566 289.974 87.4611" stroke="#312725" stroke-width="0.6026" stroke-miterlimit="10" stroke-linecap="round" stroke-linejoin="round"/>
<path d="M304.384 78.1551C304.96 81.556 302.664 84.7821 299.263 85.3574C295.862 85.9327 292.636 83.6372 292.061 80.2363C291.486 76.8354 293.781 73.6093 297.182 73.034C300.583 72.4587 303.809 74.7542 304.384 78.1551Z" fill="#32292A"/>
<path d="M359.211 217.362H0.377045" stroke="#281F27" stroke-width="0.7565" stroke-miterlimit="10"/>
</svg>
